HIERARCHY
ROOT joint_Root
{
	OFFSET 0.0 0.0 0.0
	CHANNELS 6 Xposition Yposition Zposition Zrotation Xrotation Yrotation 
	JOINT Hips
	{
		OFFSET -0.726466 93.3139 -2.00062
		CHANNELS 6 Xposition Yposition Zposition Zrotation Xrotation Yrotation 
		JOINT Spine
		{
			OFFSET 15.7357 0.0 0.0
			CHANNELS 6 Xposition Yposition Zposition Zrotation Xrotation Yrotation 
			JOINT Chest
			{
				OFFSET 8.98455 -0.406207 0.0
				CHANNELS 6 Xposition Yposition Zposition Zrotation Xrotation Yrotation 
				JOINT Neck
				{
					OFFSET 16.3773 0.0 0.0
					CHANNELS 6 Xposition Yposition Zposition Zrotation Xrotation Yrotation 
					JOINT Head
					{
						OFFSET 6.45672 0.0 0.0
						CHANNELS 6 Xposition Yposition Zposition Zrotation Xrotation Yrotation 
						End Site
						{
							OFFSET 0.0 0.0 0.0
						}
					}
				}
				JOINT Shoulder_L
				{
					OFFSET 12.9942 -0.242716 4.98039
					CHANNELS 6 Xposition Yposition Zposition Zrotation Xrotation Yrotation 
					JOINT UpperArm_L
					{
						OFFSET 5.34809 0.0 0.0
						CHANNELS 6 Xposition Yposition Zposition Zrotation Xrotation Yrotation 
						JOINT LowerArm_L
						{
							OFFSET 24.3286 1.87007e-05 0.0
							CHANNELS 6 Xposition Yposition Zposition Zrotation Xrotation Yrotation 
							JOINT Hand_L
							{
								OFFSET 22.2916 0.0 0.0
								CHANNELS 6 Xposition Yposition Zposition Zrotation Xrotation Yrotation 
								End Site
								{
									OFFSET 0.0 0.0 0.0
								}
							}
						}
					}
				}
				JOINT Shoulder_R
				{
					OFFSET 12.9945 -0.242716 -4.98039
					CHANNELS 6 Xposition Yposition Zposition Zrotation Xrotation Yrotation 
					JOINT UpperArm_R
					{
						OFFSET -5.34813 0.0 0.0
						CHANNELS 6 Xposition Yposition Zposition Zrotation Xrotation Yrotation 
						JOINT LowerArm_R
						{
							OFFSET -24.3289 0.000322201 0.0
							CHANNELS 6 Xposition Yposition Zposition Zrotation Xrotation Yrotation 
							JOINT Hand_R
							{
								OFFSET -22.2915 -0.000108084 0.0
								CHANNELS 6 Xposition Yposition Zposition Zrotation Xrotation Yrotation 
								End Site
								{
									OFFSET 0.0 0.0 0.0
								}
							}
						}
					}
				}
			}
		}
		JOINT UpperLeg_L
		{
			OFFSET -2.19248 -6.46944 0.0
			CHANNELS 6 Xposition Yposition Zposition Zrotation Xrotation Yrotation 
			JOINT LowerLeg_L
			{
				OFFSET 39.0811 0.0 -1.23785e-05
				CHANNELS 6 Xposition Yposition Zposition Zrotation Xrotation Yrotation 
				JOINT Foot_L
				{
					OFFSET 40.9854 0.0 -1.26872e-05
					CHANNELS 6 Xposition Yposition Zposition Zrotation Xrotation Yrotation 
					JOINT Toes_L
					{
						OFFSET 11.7543 0.0 0.0
						CHANNELS 6 Xposition Yposition Zposition Zrotation Xrotation Yrotation 
						End Site
						{
							OFFSET 0.0 0.0 0.0
						}
					}
				}
			}
		}
		JOINT UpperLeg_R
		{
			OFFSET -2.19251 6.46944 0.0
			CHANNELS 6 Xposition Yposition Zposition Zrotation Xrotation Yrotation 
			JOINT LowerLeg_R
			{
				OFFSET -39.0811 -0.00228153 -0.0401928
				CHANNELS 6 Xposition Yposition Zposition Zrotation Xrotation Yrotation 
				JOINT Foot_R
				{
					OFFSET -40.9854 0.0 0.0
					CHANNELS 6 Xposition Yposition Zposition Zrotation Xrotation Yrotation 
					JOINT Toes_R
					{
						OFFSET -11.7543 0.0 0.0
						CHANNELS 6 Xposition Yposition Zposition Zrotation Xrotation Yrotation 
						End Site
						{
							OFFSET 0.0 0.0 0.0
						}
					}
				}
			}
		}
	}
}
MOTION
Frames:	5
Frame Time:	0.0333333
0.000000 0.000000 0.000000 0.000000 0.000000 -0.000000 -0.410476 91.909700 -1.510800 87.439800 -3.848280 3.320590 15.735700 0.000005 -0.000001 83.320600 83.927500 -82.637900 8.984550 -0.406207 -0.000000 4.306580 -1.430950 1.417650 16.377300 -0.000001 -0.000001 5.093780 -0.539533 0.686941 6.456720 -0.000001 -0.000000 1.845060 0.015330 -2.126120 12.994200 -0.242716 4.980390 -90.311700 0.906407 -71.022500 5.348090 -0.000007 -0.000001 -65.299600 35.528600 -15.764400 24.328600 0.000019 0.000005 4.760620 9.111640 -27.739400 22.291600 -0.000001 0.000005 5.295600 5.635960 -13.796300 12.994500 -0.242716 -4.980390 88.404600 4.744190 -71.389200 -5.348130 -0.000001 -0.000004 -56.432700 36.047700 -17.887300 -24.328900 0.000322 -0.000009 0.928761 1.611380 -29.992600 -22.291500 -0.000108 -0.000004 9.703110 5.655400 -15.553800 -2.192480 -6.469440 -0.000000 -170.535000 -17.900700 -4.661400 39.081100 -0.000007 -0.000012 -0.160881 0.342309 25.173200 40.985400 -0.000006 -0.000013 -5.363570 -2.443280 -65.396900 11.754300 -0.000000 0.000003 -0.000082 -0.000871 -16.611100 -2.192510 6.469440 -0.000001 176.325000 20.811500 175.974000 -39.081100 -0.002282 -0.040193 0.042868 -0.092508 23.149300 -40.985400 0.000008 0.000006 0.623127 2.822170 -64.080100 -11.754300 -0.000006 -0.000006 -0.004989 -0.061354 -19.069500
0.000000 0.000000 0.000000 0.000000 0.000000 -0.000000 -0.406910 91.903400 -1.500440 87.422200 -3.896500 3.346280 15.735700 0.000005 -0.000001 83.305300 83.944200 -82.589500 8.984550 -0.406207 -0.000000 4.273490 -1.431510 1.483420 16.377300 -0.000001 -0.000001 5.083380 -0.611840 0.705367 6.456720 -0.000001 -0.000000 1.975290 -0.021349 -2.190000 12.994200 -0.242716 4.980390 -90.382500 1.111400 -71.007500 5.348090 -0.000007 -0.000001 -63.253300 35.539700 -17.383500 24.328600 0.000019 0.000005 5.438530 10.131500 -28.423300 22.291600 -0.000001 0.000005 5.758210 5.643160 -14.393700 12.994500 -0.242716 -4.980390 88.503100 4.430060 -71.309100 -5.348130 -0.000001 -0.000004 -54.806200 39.442600 -17.938300 -24.328900 0.000322 -0.000009 0.907321 1.407250 -32.848100 -22.291500 -0.000108 -0.000004 10.988600 5.661090 -16.184000 -2.192480 -6.469440 -0.000000 -170.502000 -17.894900 -4.623350 39.081100 -0.000007 -0.000012 -0.161155 0.342308 25.210700 40.985400 -0.000006 -0.000013 -5.381100 -2.474320 -65.440100 11.754300 -0.000000 0.000003 -0.000075 -0.000809 -16.608700 -2.192510 6.469440 -0.000001 176.323000 20.809800 176.006000 -39.081100 -0.002282 -0.040193 0.043083 -0.092980 23.156200 -40.985400 0.000008 0.000006 0.605896 2.866230 -64.099400 -11.754300 -0.000006 -0.000006 -0.005220 -0.063581 -19.160200
0.000000 0.000000 0.000000 0.000000 0.000000 -0.000000 -0.417029 91.901000 -1.497940 87.415400 -3.833770 3.441590 15.735700 0.000005 -0.000001 83.461700 83.943100 -82.708400 8.984550 -0.406207 -0.000000 4.279590 -1.400060 1.557230 16.377300 -0.000001 -0.000001 5.123370 -0.685639 0.700912 6.456720 -0.000001 -0.000000 2.010920 -0.130917 -2.181710 12.994200 -0.242716 4.980390 -90.423600 1.230710 -71.007100 5.348090 -0.000007 -0.000001 -60.680000 34.153600 -19.545300 24.328600 0.000019 0.000005 6.099760 10.859000 -29.563800 22.291600 -0.000001 0.000005 6.404980 5.646780 -14.714800 12.994500 -0.242716 -4.980390 88.620600 4.048090 -71.165100 -5.348130 -0.000001 -0.000004 -52.630900 43.411400 -17.852900 -24.328900 0.000322 -0.000009 1.276230 1.690470 -37.083600 -22.291500 -0.000108 -0.000004 12.658000 5.666450 -16.863500 -2.192480 -6.469440 -0.000000 -170.468000 -17.826700 -4.552670 39.081100 -0.000007 -0.000012 -0.161653 0.343038 25.231800 40.985400 -0.000006 -0.000013 -5.391840 -2.504440 -65.441400 11.754300 -0.000000 0.000003 -0.000083 -0.000878 -16.611400 -2.192510 6.469440 -0.000001 176.294000 20.812500 176.112000 -39.081100 -0.002282 -0.040193 0.043127 -0.092947 23.186900 -40.985400 0.000008 0.000006 0.600605 2.840990 -64.106900 -11.754300 -0.000006 -0.000006 -0.005235 -0.063721 -19.165900
0.000000 0.000000 0.000000 0.000000 0.000000 -0.000000 -0.465467 91.889000 -1.507660 87.408700 -3.643880 3.519310 15.735700 0.000005 -0.000001 83.327500 83.961200 -82.522800 8.984550 -0.406207 -0.000000 4.241430 -1.425880 1.660400 16.377300 -0.000001 -0.000001 5.169800 -0.698408 0.637483 6.456720 -0.000001 -0.000000 2.143070 -0.239556 -2.139760 12.994200 -0.242716 4.980390 -90.407500 1.177490 -70.908400 5.348090 -0.000007 -0.000001 -57.902600 31.445600 -22.158000 24.328600 0.000019 0.000005 5.903340 9.991610 -30.792500 22.291600 -0.000001 0.000005 7.309190 5.648710 -14.892800 12.994500 -0.242716 -4.980390 88.764000 3.598580 -71.030500 -5.348130 -0.000001 -0.000004 -50.414100 47.023500 -17.313700 -24.328900 0.000322 -0.000009 2.327520 2.524000 -42.719700 -22.291500 -0.000108 -0.000004 12.987800 5.670400 -17.444000 -2.192480 -6.469440 -0.000000 -170.408000 -17.711500 -4.549270 39.081100 -0.000007 -0.000012 -0.162456 0.343734 25.296700 40.985400 -0.000006 -0.000013 -5.390860 -2.352650 -65.437900 11.754300 -0.000000 0.000003 -0.000094 -0.000972 -16.614900 -2.192510 6.469440 -0.000001 176.294000 20.967900 176.210000 -39.081100 -0.002282 -0.040193 0.043408 -0.093490 23.211900 -40.985400 0.000008 0.000006 0.671571 2.780340 -64.217400 -11.754300 -0.000006 -0.000006 -0.005099 -0.062418 -19.112800
0.000000 0.000000 0.000000 0.000000 0.000000 -0.000000 -0.516383 91.880500 -1.516340 87.362000 -3.413730 3.599890 15.735700 0.000005 -0.000001 83.201500 83.991700 -82.320700 8.984550 -0.406207 -0.000000 4.178990 -1.447860 1.812580 16.377300 -0.000001 -0.000001 5.279440 -0.675919 0.527612 6.456720 -0.000001 -0.000000 2.289690 -0.215798 -2.059540 12.994200 -0.242716 4.980390 -90.342500 0.986705 -70.858300 5.348090 -0.000007 -0.000001 -55.130200 27.451400 -24.947500 24.328600 0.000019 0.000005 5.965510 9.371620 -32.688800 22.291600 -0.000001 0.000005 7.933760 5.649320 -14.950700 12.994500 -0.242716 -4.980390 88.925900 3.094170 -70.845500 -5.348130 -0.000001 -0.000004 -47.863700 50.617000 -16.648100 -24.328900 0.000322 -0.000009 3.745750 3.221770 -49.364700 -22.291500 -0.000108 -0.000004 13.014000 5.673890 -18.044700 -2.192480 -6.469440 -0.000000 -170.309000 -17.604800 -4.558810 39.081100 -0.000007 -0.000012 -0.161404 0.340338 25.372700 40.985400 -0.000006 -0.000013 -5.402920 -2.253530 -65.428500 11.754300 -0.000000 0.000003 -0.000071 -0.000764 -16.607100 -2.192510 6.469440 -0.000001 176.333000 21.120400 176.282000 -39.081100 -0.002282 -0.040193 0.042708 -0.091546 23.282500 -40.985400 0.000008 0.000006 0.613874 2.705310 -64.221900 -11.754300 -0.000006 -0.000006 -0.005100 -0.062434 -19.113500
